<?xml version="1.0" encoding="utf-8"?>
<!-- Generator: Adobe Illustrator 25.0.0, SVG Export Plug-In . SVG Version: 6.00 Build 0)  -->
<svg version="1.1" id="Capa_1" xmlns="http://www.w3.org/2000/svg" xmlns:xlink="http://www.w3.org/1999/xlink" x="0px" y="0px"
	 viewBox="0 0 42 42" style="enable-background:new 0 0 42 42;" xml:space="preserve">
<style type="text/css">
	.st0{fill:#F5F5DC;}
</style>
<path class="st0" d="M36.1,1.1H5.9c-2.6,0-4.7,2.1-4.7,4.7v30.3c0,2.6,2.1,4.7,4.7,4.7h30.3c2.6,0,4.7-2.1,4.7-4.7V5.9
	C40.9,3.2,38.8,1.1,36.1,1.1z M32.4,15.3h-1.9c-2,0-2.8,0.5-2.8,1.9v2.8h4.7l-0.9,4.7h-3.8V39h-4.7V24.8h-3.8v-4.7h3.8v-2.8
	c0-3.8,1.9-6.6,5.7-6.6c2.7,0,3.8,0.9,3.8,0.9V15.3z"/>
</svg>
