<?xml version="1.0" encoding="utf-8"?>
<!-- Generator: Adobe Illustrator 25.0.0, SVG Export Plug-In . SVG Version: 6.00 Build 0)  -->
<svg version="1.1" id="Capa_1" xmlns="http://www.w3.org/2000/svg" xmlns:xlink="http://www.w3.org/1999/xlink" x="0px" y="0px"
	 viewBox="0 0 440.1 403.4" style="enable-background:new 0 0 440.1 403.4;" xml:space="preserve">
<style type="text/css">
	.st0{fill:#1A1A1A;}
</style>
<g>
	<path class="st0" d="M220.4,81.3c-31.2-2.4-58.9,7.1-84.1,24.9C148.7,89.6,200.3,73.4,220.4,81.3z"/>
	<path class="st0" d="M228.1,85.8c-25.1,0.5-48.4,7.9-71,17.9C179.2,91.5,202.6,84.4,228.1,85.8z"/>
	<path class="st0" d="M254.6,88.8c-27.5,0.3-52.3,7.2-78.1,14.5C182.9,96,245.6,84.1,254.6,88.8z"/>
	<path class="st0" d="M260.5,98.8c-4.3-1.2-7.5-2.4-10.9-3c-12.8-2.3-25.1,1-37.4,3.5c-5.2,1-10.3,3.2-15.7,2.9
		C215.7,94.7,251.3,88.4,260.5,98.8z"/>
	<path class="st0" d="M291.6,122.7c-19.4-1.5-38.7-2.5-58,1.5C241.2,118.8,283.1,117.7,291.6,122.7z"/>
	<path class="st0" d="M279.1,111.4c-20,0.8-40.1-1.4-59.8,3.8C225.1,109.9,269.6,107,279.1,111.4z"/>
	<path class="st0" d="M278.3,106.7c-0.7,0.5-1,0.9-1.2,0.9c-15.6-6.6-31.6-3.7-47.6-2.4c-7.4,0.6-14.7,1.9-22.2,1.1
		c3.8-2.3,8-1.5,12-2c14.2-1.7,28.4-3.6,42.7-2.5C267.7,102.2,273.4,102.8,278.3,106.7z"/>
	<path class="st0" d="M291.8,220.5c-8.2,2.8-16.5,5-25.2,3.5C275.1,223,283.3,220.8,291.8,220.5z"/>
	<path class="st0" d="M298.7,165.2c-12,5.5-24.4,4.8-37,3.2C274.1,167.8,286.5,168.2,298.7,165.2z"/>
	<path class="st0" d="M305,190.3c-12.1,4.7-24.4,5.5-37,2.3C280.5,193.8,292.8,192.5,305,190.3z"/>
	<path class="st0" d="M303.5,154.1c-13.1,4.1-27.1,3.9-40.3,8.1C275.9,156,289.8,155.6,303.5,154.1z"/>
	<path class="st0" d="M300,133.4c-15.6,1.1-31,3.9-46.7,2.7C268.8,134.8,284.3,132.3,300,133.4z"/>
	<path class="st0" d="M305,175.1c-11.1,1.6-22.3,2.5-33.6,2.6c0-0.6-0.1-1.2-0.1-1.8c11.2-0.8,22.4-1.6,33.6-2.4
		C305,174.1,305,174.6,305,175.1z"/>
	<path class="st0" d="M310.8,147.6c-2.3-20.8-9.7-39.5-26.6-52.9c-32.7-26-69.3-33.8-109.5-21.3c-21.5,6.7-40.6,17.6-54.2,36.1
		c-17.9,24.3-21.8,52-17.9,81.1c4.4,32.7,17.5,61.3,41.3,84.8c7.3,7.2,13.7,15.4,17.8,25.1s4.4,15.7,0.8,25.3
		c-0.2,0.4-0.3,1.2,0,1.4c2.2,2.1,0.1,3.4-0.9,4.9c-1.1,1.6-2.7,3.3-2.4,5.4c1.1,6.6,2.4,13.4,5.6,19.1c1.7,3,2.3,5,1.4,7.9
		c-1.5,4.7-0.3,8.8,3.1,12.4c0.6,0.6,2.2,1,1.6,2.1c-2.1,4.1,1.8,4.1,3.6,5.6c1.2,1,3.6,0.5,3.5,2.9c-0.4,7.9,5.3,10.3,11.3,12.5
		c6.3,2.3,13,3,19.6,3.4c12.2,0.7,24.2-0.5,35.6-5.7c4.2-1.9,8-4.6,9.2-9.2c1.1-3.9-1-9,5.2-10.6c0.8-0.2,1.1-3,1.3-4.6
		c0.3-2,0.4-4,0.2-6c-0.1-1.5-0.1-2.7,1.6-3.1c2.6-0.6,2.5-2.3,2.7-4.5c0.2-3.9,0.3-8.5,6.4-7.7c0.1,0,0.3-0.5,0.7-1.2
		c-2.3,0.2-3.3-1.7-5.4-2.2c-2.7-0.8-1.6-5.8,2.2-8.5c-3.4,0.8-3.8-0.8-4.1-3.1c-0.5-3.5-0.6-7.6-6-7.3c-1.5,0.1-1.3-1.2-1.2-2.1
		c0.1-1.3-0.4-2.7-1.5-2.8c-3.6-0.2-2.3-2.5-1.9-4.2c3.3-16.3,10.8-30.8,20.2-44.3c11.2-16.1,22.2-32.2,29.2-50.8
		C312.5,200,313.8,174,310.8,147.6z M220.1,334.8c-2.2,2.4-5.7-0.7-7.9,1.9c0.2,2.9,2.5,1.6,3.8,1.6c9.2,0.2,18.3,0.2,27.4,0.4
		c1.6,0,4.4-1.2,4.5,1.5c0.1,3.2-3.2,1.7-4.7,1.7c-9,0.3-17.9,0-26.8-1.8c-1.1-0.2-2.2-0.8-3.6,1.1c12,3.3,24,2.7,36,2.8
		c0,0.8-0.1,1.7-0.1,2.6c-11.2,0-22.4,0-33.6,0c-13.8,0-27.6-0.5-41.2-2.8c-2.1-0.4-2.6-1-2.8-3c-1-11-0.6-11.2,10.9-9.9
		C194.6,332.4,207.4,333.5,220.1,334.8z M206.2,295.9c-0.3,0-0.6-0.1-0.9-0.1c-3.4-26.2-6.7-52.4-10.3-78.5
		c-0.5-3.8,0.8-3.7,3.6-3.3c10.1,1.5,10.1,1.5,9.8,11.7c-0.6,22.1-1.3,44.2-1.9,66.4C206.5,293.3,206.3,294.6,206.2,295.9z
		 M222.3,226.1c-2,23.8-0.8,47.6-2.1,71.4c-0.5,8.3-1.3,16.6-2.2,24.9c-0.1,1.5,0,3.3-2.6,3.4c-2.6,0-2.5-1.7-2.6-3.3
		c-0.8-8.8-1.3-17.6-1-26.4c0.6-25.6,1.3-51.3,1.8-76.9c0.1-2.9,0.8-3.9,3.6-3.5c1.6,0.2,3.3,0,5,0.1c1.9,0.1,3.5-0.3,3.6-2.4
		c0-1.7-1.3-2.3-3-2.7c-8.8-2.4-11.6-6.2-11.7-15.3c0-2.2,0.5-2.9,2.7-2.8c5.5,0.1,11,0,16.7,0c-1.4,7.6-2.9,14.6-3.2,21.7
		c0,0.6-0.2,1.7-0.5,1.8C220.4,217.3,222.6,222.5,222.3,226.1z M246.9,389.4c-4.8,5-11.1,6.3-17.5,7.5c-12.6,2.4-25.1,2.1-37.4-1.4
		c-2.9-0.8-5.6-2-7.8-4.1c-0.8-0.7-1.3-1.6-0.9-2.7c0.6-1.5,1.7-0.3,2.5-0.2c21.5,4,42.5,3.4,63.1-4.7c0.1,0,0.2,0.2,0.8,0.7
		c-7.5,6.1-17.1,6.5-25.5,10C232,394.3,239.5,392.3,246.9,389.4z M230.7,384c-15.5,2.5-31.1,3.3-46.4-1.2c-3.3-1-8.5-0.5-7.7-6.7
		c0.2-1.2-1.6-1.5-2.6-2.1c-2.3-1.4-3.5-3.3-3.2-6.5c14.3,6.2,29.1,4.3,43.8,3.7c11.3-0.5,22.6-0.1,33.8-1.4c-9,3.3-18.7,2.6-28,4.6
		c9.7,1.4,19.1-0.5,28.6-1.9c0.4,0.3,0.7,0.6,1,0.9c-9.1,3-18.5,4.3-27.9,5.7c11.1,1.5,21.6-1.8,32.2-4.2
		C246.8,379.1,239.2,382.7,230.7,384z M254,358.9c-0.3,0.3-0.7,0.6-1,0.9c-12.3,0.7-24.2,4-36.2,6c-12.4,2.1-25.2,2.1-37.7-0.6
		c-3.5-0.8-6.8-7.7-5-10.8c1.5-2.7,1.2-4.2-1.6-5.5c15.6,2.4,31.2,2.9,47.1,2.8c-2.4,1.8-5.5,0-8.2,3.2c7-0.6,13-1.1,19-1.5
		c5.5-0.3,11-0.6,16.5-0.7c1.8,0,4.6-1,4.7,1.9c0.1,2.3-2.7,1.8-4.2,1.9c-10.4,0.9-20.8,2.7-31.3,2.3c-1,0-2.3-0.5-3.3,1.1
		c1.4,1.5,3.3,0.9,4.9,0.9c10.5,0.2,20.9-1.4,31.3-2.5C250.7,358,252.6,357.1,254,358.9z M307,178.3c-0.1,3-2.5,2.8-4.2,3.2
		c-10.1,2.1-20.4,3-30.7,1.4c-1.2-0.2-2.5-0.7-4,1.2c13.1,2.8,25.6,1.6,38-1.3c0.2,0.4,0.5,0.7,0.5,0.9c-0.8,13-0.8,13-13.8,14
		c-5,0.4-10.1,0.9-15.1,1.9c9,2,18-0.7,27-0.9c-1.3,8.5-1.3,8.5-9.6,8.9c-8.6,0.4-17.3,0.7-25.9,1c-0.2,0-0.5,0.3-0.7,0.5
		c0.6,1.9,2.1,1.2,3.3,1.2c9.3-0.3,18.6-0.5,27.9-1.1c2.5-0.2,2.9,0.4,2.3,2.5c-1.1,3.5-2.4,6.9-3.3,10.4c-0.7,2.5-2.8,2.7-4.6,3.1
		c-9.4,1.9-18.7,4.7-28.4,5.3c-0.7,0-1.3,0.3-1.6,1.8c11,0.1,21.3-3.7,32.1-5.5c-0.9,4.8-2.8,7.8-7.9,8.3
		c-7.4,0.8-14.8,2.3-22.3,2.4c-1.5,0-3.3-0.8-5.1,1.6c10.7,1.1,20.6-1,30.6-2.6c-2.4,9.2-4.6,11.4-13.4,13.4
		c-7.5,1.7-15.2,1.5-22.8,2.3c-1.2,0.1-2.7-0.5-4,1.8c11.3-0.1,22-0.8,32.5-3.5c-2.1,7.3-6.9,10.4-14.1,11c-5.5,0.4-10.9,1-16.4,1.1
		c-1.5,0-3.3-0.6-5,1.6c9.7,0.9,18.6-0.1,27.5-1.9c-2.8,7.5-5.3,9.4-12.6,10.1c-6.5,0.6-12.9,1.3-19.4,2c-1,0.1-2.5-0.4-3,2.1
		c9.3-0.9,18.4-1.8,27.5-2.6c-0.8,3.3-3.3,4.1-6.3,4.6c-7.9,1.5-16.1,1.8-23.9,4.2c0.1,0.5,0.1,0.9,0.2,1.4
		c8.4-1.2,16.8-2.5,25.7-3.8c-2.8,5.8-4.4,11.5-12.2,11.8c-5.9,0.3-11.8,2.1-17.6,3.2c-0.9,0.2-2.1-0.1-2.3,2.2
		c8.3-1.5,16.5-2.9,24.9-4.4c-0.9,6.2-3.8,9.6-9.8,10.3c-5,0.6-10,1.6-15,3c6.8,1.3,13.2-0.9,20.9-2.4c-4.5,10.9-14.6,6.8-21.5,9.7
		c3.1,1.7,6.4,1.5,17.8-1.3c0,5.3-1.5,7.2-7,7.8c-4,0.4-8.1,0.1-12.5,0.1c1.3,3.2,5.5,0.5,6.1,4c-3.8,1.5-7.8,0.8-11.7,1.1
		c-1.5,0.1-1.9-0.4-1.7-2.1c4.5-33.3,1.9-66.9,4.6-100.4c1.9-0.2,3.3,2.8,5.2,1.2c2-1.8-0.2-3.6-0.3-5.5c-0.5-8.4,1.3-16.5,3-24.7
		c0.5-2.2,2.5-2,4-2.1c3.3-0.4,6.6-1,9.6-2.6c3.7-1.9,4.7-6.9,2.2-9.8c-0.9-1-1.9-1.4-3.1-1c-1,0.3-2.1,1.2-1.7,2.1
		c2.9,6.2-2.7,4.7-5.3,5.9c-0.7,0.3-1.6,0.2-2.3,0.2c-1-1.2,0.3-1.9,0.5-2.8c0.2-1.6,0.4-3-1.4-3.8c-2-0.8-3,0.7-3.3,2.1
		c-1,5.6-5,5.6-9.3,5.3c-3.5-0.2-7-0.3-10.5-0.1c-4,0.2-4.9-1.6-3.2-4.8c1.2-2.2,0.4-3.3-1.1-4.7c-1-1-1.9-2-3.4-1.3
		c-1.1,0.5-1.9,1.5-1.7,2.8c0.7,4.9-3,6.6-6.3,7.7c-4.1,1.4-8.3,0.5-11.4-3c-2.7-3.1-4.4-6.6-4.5-10.8c-0.1-1.8,0-3.9-2.6-4
		c-2.8-0.1-2.2,2.2-2.6,3.9c-3.3,12.8-1.2,25.8-1.8,38.8c-0.1,1.7,0.4,3.1,2.2,3.3c2.1,0.2,2.6-1.5,2.9-3.3c1.4-8,1.7-16.2,1.9-24.9
		c5.9,5,12,7.4,19.4,4.3c1.9-0.8,3.5,0.5,3.5,2.8c0.1,3.5,0.7,6.9,1.5,10.3c0.7,3.2-0.5,5.5-4.5,4.9c-2-0.3-3.9-0.8-5.9-0.9
		c-2.7-0.1-3.8-1.4-3.9-4c-0.1-1.5-0.3-3-0.6-4.4c-0.2-1.2-0.8-2.2-2.3-2c-1.3,0.2-2.3,0.9-2.2,2.2c0.2,2.5,0,4.7-2,6.6
		c-0.3,0.3-0.1,2,0.3,2.3c5.1,3.8,3.9,9.7,4.5,14.7c4.5,33.8,8.2,67.6,14.8,100.3c-10.9,0-21.9,0-32.8,0c-2.2,0-2.4-1.4-2.3-3
		c0.4-21.7-11.2-37.5-25.5-52.2c-25.1-25.9-37.8-57.3-38.6-93c-1.2-54.1,26.2-87,76.9-99.9c39.7-10.1,75,0.4,104.4,29
		c9.4,9.2,13.8,21.2,16.7,33.9c0.8,3.3-1.4,2.8-2.9,3c-12.5,1.9-25,3.7-37.4,5.6c-1.8,0.3-3.9,0-6.4,2.8c8.7-1.2,16.1-2.1,23.5-3.2
		c7.1-1,14.1-2.1,21.2-3.3c2.3-0.4,3,0.6,3.2,2.5C307,157,307.2,167.7,307,178.3z"/>
	<path class="st0" d="M83.6,270.1c-0.1,2.3-2.1,2.7-3.7,3.4c-10.9,4.8-21.8,9.6-32.8,14.1c-14.4,5.9-27.7,13.6-39.8,23.3
		c-0.8,0.6-1.6,1.2-2.3,1.9c-1.4,1.2-3,1.8-4.4,0.2c-1.4-1.7-0.2-3,1.2-4.1c11.3-9.1,23.2-17.1,36.5-22.9
		c13.4-5.8,27-10.9,40.1-17.3C80.7,267.6,82.6,267,83.6,270.1z"/>
	<path class="st0" d="M311.9,260.3c16.9,2.7,32.5,8.9,47.1,17.7c5.4,3.3,10.7,6.6,16,10c1.6,1,4.1,1.9,2.6,4.4
		c-1.8,2.9-3.7,0.7-5.4-0.4c-12.4-7.7-24.5-15.8-38.3-20.8c-7.5-2.7-15.2-4.6-23-6.2c-1.5-0.3-3.1-0.7-2.7-2.8
		C308.6,260.2,310.1,259.8,311.9,260.3z"/>
	<path class="st0" d="M137,47.7c0.2,1.6-0.4,2.4-1.3,2.9c-1.7,0.9-2.7-0.2-3.8-1.4C121.3,37,109,26.5,97.6,15.1
		c-3.3-3.3-6.5-6.6-9.8-10c-1.2-1.2-2.3-2.6-0.6-4.3c1.8-1.8,3-0.4,4.1,0.8c13.7,14.7,29.3,27.6,42.9,42.5
		C135.3,45.3,136.7,46.4,137,47.7z"/>
	<path class="st0" d="M396.6,178.4c-6.8,0-13.6,0-20.4,0c-2,0-4.3,0.1-4.1-2.9c0.1-2.9,2.6-2.1,4.2-2.1c19.9,0,39.9-0.3,59.7,2.2
		c2.1,0.3,4.3,0.3,4.1,3.1c-0.2,3.3-3,2-4.7,1.8C422.5,179.2,409.6,178.5,396.6,178.4z"/>
	<path class="st0" d="M332.5,25.4c-1.1,0.8-2,1.4-2.9,2.1c-5.2,3.9-10.2,8.1-16.2,10.5c-9,3.7-15.4,10.2-20.8,17.9
		c-1,1.3-1.9,2.7-3,4c-1,1.3-2.4,1.3-3.6,0.5c-1.4-0.9-1.2-2.2-0.3-3.5c6-8.3,11.7-17,21.6-21.4c7-3.1,13.3-7.4,19.3-12.1
		c1.3-1,2.6-1.7,4-0.6C331.3,23.3,331.6,24.1,332.5,25.4z"/>
	<path class="st0" d="M38.3,175.8c-8.6,0-15.3,0-21.9,0c-2,0-3.9-0.3-3.7-2.8c0.1-2.1,1.9-2.3,3.7-2.3c16.6-0.1,33.2,0.4,49.7,2.2
		c0.3,0,0.7,0.1,1,0.2c1.6,0.5,4.2,0.1,3.8,2.8c-0.4,2.6-2.7,2.3-4.8,2.1C56.1,177.2,46.2,176.4,38.3,175.8z"/>
	<path class="st0" d="M201.1,38.4c-0.1-3.2,0.7-7.1,2.7-10.7c1.8-3.3,2.1-6.9,2.2-10.6c0-1.9-0.4-4.5,2.6-4.3
		c2.8,0.2,2.4,2.7,2.4,4.6c0,3.5-0.2,7.1-1.7,10.3c-2.1,4.6-3.7,9.2-3.3,14.4c0.2,1.9-0.5,3.5-2.5,3.6c-2.4,0.2-2.4-1.7-2.5-3.5
		C201,41.2,201.1,40.2,201.1,38.4z"/>
	<path class="st0" d="M220.4,81.3c-31.2-2.4-58.9,7.1-84.1,24.9C148.7,89.6,200.3,73.4,220.4,81.3z"/>
	<path class="st0" d="M228.1,85.8c-25.1,0.5-48.4,7.9-71,17.9C179.2,91.5,202.6,84.4,228.1,85.8z"/>
	<path class="st0" d="M254.6,88.8c-27.5,0.3-52.3,7.2-78.1,14.5C182.9,96,245.6,84.1,254.6,88.8z"/>
	<path class="st0" d="M260.5,98.8c-4.3-1.2-7.5-2.4-10.9-3c-12.8-2.3-25.1,1-37.4,3.5c-5.2,1-10.3,3.2-15.7,2.9
		C215.7,94.7,251.3,88.4,260.5,98.8z"/>
	<path class="st0" d="M291.6,122.7c-19.4-1.5-38.7-2.5-58,1.5C241.2,118.8,283.1,117.7,291.6,122.7z"/>
	<path class="st0" d="M279.1,111.4c-20,0.8-40.1-1.4-59.8,3.8C225.1,109.9,269.6,107,279.1,111.4z"/>
	<path class="st0" d="M278.3,106.7c-0.7,0.5-1,0.9-1.2,0.9c-15.6-6.6-31.6-3.7-47.6-2.4c-7.4,0.6-14.7,1.9-22.2,1.1
		c3.8-2.3,8-1.5,12-2c14.2-1.7,28.4-3.6,42.7-2.5C267.7,102.2,273.4,102.8,278.3,106.7z"/>
	<path class="st0" d="M291.8,220.5c-8.2,2.8-16.5,5-25.2,3.5C275.1,223,283.3,220.8,291.8,220.5z"/>
	<path class="st0" d="M298.7,165.2c-12,5.5-24.4,4.8-37,3.2C274.1,167.8,286.5,168.2,298.7,165.2z"/>
	<path class="st0" d="M305,190.3c-12.1,4.7-24.4,5.5-37,2.3C280.5,193.8,292.8,192.5,305,190.3z"/>
	<path class="st0" d="M303.5,154.1c-13.1,4.1-27.1,3.9-40.3,8.1C275.9,156,289.8,155.6,303.5,154.1z"/>
	<path class="st0" d="M300,133.4c-15.6,1.1-31,3.9-46.7,2.7C268.8,134.8,284.3,132.3,300,133.4z"/>
	<path class="st0" d="M305,175.1c-11.1,1.6-22.3,2.5-33.6,2.6c0-0.6-0.1-1.2-0.1-1.8c11.2-0.8,22.4-1.6,33.6-2.4
		C305,174.1,305,174.6,305,175.1z"/>
	<path class="st0" d="M220.4,81.3c-31.2-2.4-58.9,7.1-84.1,24.9C148.7,89.6,200.3,73.4,220.4,81.3z"/>
	<path class="st0" d="M254.6,88.8c-27.5,0.3-52.3,7.2-78.1,14.5C182.9,96,245.6,84.1,254.6,88.8z"/>
	<path class="st0" d="M228.1,85.8c-25.1,0.5-48.4,7.9-71,17.9C179.2,91.5,202.6,84.4,228.1,85.8z"/>
	<path class="st0" d="M278.3,106.7c-0.7,0.5-1,0.9-1.2,0.9c-15.6-6.6-31.6-3.7-47.6-2.4c-7.4,0.6-14.7,1.9-22.2,1.1
		c3.8-2.3,8-1.5,12-2c14.2-1.7,28.4-3.6,42.7-2.5C267.7,102.2,273.4,102.8,278.3,106.7z"/>
	<path class="st0" d="M260.5,98.8c-4.3-1.2-7.5-2.4-10.9-3c-12.8-2.3-25.1,1-37.4,3.5c-5.2,1-10.3,3.2-15.7,2.9
		C215.7,94.7,251.3,88.4,260.5,98.8z"/>
	<path class="st0" d="M279.1,111.4c-20,0.8-40.1-1.4-59.8,3.8C225.1,109.9,269.6,107,279.1,111.4z"/>
	<path class="st0" d="M291.6,122.7c-19.4-1.5-38.7-2.5-58,1.5C241.2,118.8,283.1,117.7,291.6,122.7z"/>
	<path class="st0" d="M300,133.4c-15.6,1.1-31,3.9-46.7,2.7C268.8,134.8,284.3,132.3,300,133.4z"/>
	<path class="st0" d="M303.5,154.1c-13.1,4.1-27.1,3.9-40.3,8.1C275.9,156,289.8,155.6,303.5,154.1z"/>
	<path class="st0" d="M305,190.3c-12.1,4.7-24.4,5.5-37,2.3C280.5,193.8,292.8,192.5,305,190.3z"/>
	<path class="st0" d="M298.7,165.2c-12,5.5-24.4,4.8-37,3.2C274.1,167.8,286.5,168.2,298.7,165.2z"/>
	<path class="st0" d="M305,175.1c-11.1,1.6-22.3,2.5-33.6,2.6c0-0.6-0.1-1.2-0.1-1.8c11.2-0.8,22.4-1.6,33.6-2.4
		C305,174.1,305,174.6,305,175.1z"/>
	<path class="st0" d="M291.8,220.5c-8.2,2.8-16.5,5-25.2,3.5C275.1,223,283.3,220.8,291.8,220.5z"/>
</g>
</svg>
