<?xml version="1.0" encoding="utf-8"?>
<!-- Generator: Adobe Illustrator 25.0.0, SVG Export Plug-In . SVG Version: 6.00 Build 0)  -->
<svg version="1.1" id="Capa_1" xmlns="http://www.w3.org/2000/svg" xmlns:xlink="http://www.w3.org/1999/xlink" x="0px" y="0px"
	 viewBox="0 0 365.3 324.7" style="enable-background:new 0 0 365.3 324.7;" xml:space="preserve">
<style type="text/css">
	.st0{fill:#1A1A1A;}
</style>
<g>
	<path class="st0" d="M98.4,286c-0.6-0.3-1.2-0.5-1.8-0.8c-24.8-9.9-49.6-19.8-74.5-29.8c-1.1-0.4-2.2-0.8-3-1.1
		c-1.1,0-2,0.1-2.2,1.1c-0.2,0.9,0.2,1.6,1,2.1c1.2,0.6,2.4,1.2,3.6,1.7c18.7,7.4,37.4,14.8,56,22.3c6.5,2.6,13,5.2,19.4,7.8
		c1.2,0.5,2.8,0.9,3.4-0.8C100.8,287,99.5,286.5,98.4,286z M100.6,310.4c-0.9-0.4-1.8-0.8-2.7-1.2c-24.8-10.5-50.1-19.6-76-27
		c-0.8-0.2-1.6-0.5-1.9-0.6c-1.4-0.2-2.2,0-2.6,0.9c-0.4,1.2,0.2,1.9,1.2,2.3c0.8,0.3,1.6,0.6,2.4,0.8c22.2,6.5,44,14,65.4,22.8
		c4.3,1.8,8.6,3.6,12.9,5.3c1.1,0.5,2.5,0.5,3-0.8C102.9,311.4,101.7,310.8,100.6,310.4z M103.7,296.6
		c-15.6-4.4-29.8-12.1-44.7-18.3c-11.3-4.7-22.8-8.4-35.2-9.1c-1.2,0-2.5-0.1-3.8,0c-1.2,0.1-3-0.3-3.1,1.6c0,1.9,1.6,1.7,3,1.8
		c2.5,0.1,5,0.2,7.5,0.4c14.3,1.4,27.2,7.1,40.1,12.8c11.5,5.1,22.8,10.8,35.1,14c1.3,0.3,2.8,1,3.4-0.7
		C106.6,297.4,104.9,296.9,103.7,296.6z M103.7,296.6c-15.6-4.4-29.8-12.1-44.7-18.3c-11.3-4.7-22.8-8.4-35.2-9.1
		c-1.2,0-2.5-0.1-3.8,0c-1.2,0.1-3-0.3-3.1,1.6c0,1.9,1.6,1.7,3,1.8c2.5,0.1,5,0.2,7.5,0.4c14.3,1.4,27.2,7.1,40.1,12.8
		c11.5,5.1,22.8,10.8,35.1,14c1.3,0.3,2.8,1,3.4-0.7C106.6,297.4,104.9,296.9,103.7,296.6z M100.6,310.4c-0.9-0.4-1.8-0.8-2.7-1.2
		c-24.8-10.5-50.1-19.6-76-27c-0.8-0.2-1.6-0.5-1.9-0.6c-1.4-0.2-2.2,0-2.6,0.9c-0.4,1.2,0.2,1.9,1.2,2.3c0.8,0.3,1.6,0.6,2.4,0.8
		c22.2,6.5,44,14,65.4,22.8c4.3,1.8,8.6,3.6,12.9,5.3c1.1,0.5,2.5,0.5,3-0.8C102.9,311.4,101.7,310.8,100.6,310.4z M98.4,286
		c-0.6-0.3-1.2-0.5-1.8-0.8c-24.8-9.9-49.6-19.8-74.5-29.8c-1.1-0.4-2.2-0.8-3-1.1c-1.1,0-2,0.1-2.2,1.1c-0.2,0.9,0.2,1.6,1,2.1
		c1.2,0.6,2.4,1.2,3.6,1.7c18.7,7.4,37.4,14.8,56,22.3c6.5,2.6,13,5.2,19.4,7.8c1.2,0.5,2.8,0.9,3.4-0.8
		C100.8,287,99.5,286.5,98.4,286z M98.4,286c-0.6-0.3-1.2-0.5-1.8-0.8c-24.8-9.9-49.6-19.8-74.5-29.8c-1.1-0.4-2.2-0.8-3-1.1
		c-1.1,0-2,0.1-2.2,1.1c-0.2,0.9,0.2,1.6,1,2.1c1.2,0.6,2.4,1.2,3.6,1.7c18.7,7.4,37.4,14.8,56,22.3c6.5,2.6,13,5.2,19.4,7.8
		c1.2,0.5,2.8,0.9,3.4-0.8C100.8,287,99.5,286.5,98.4,286z M100.6,310.4c-0.9-0.4-1.8-0.8-2.7-1.2c-24.8-10.5-50.1-19.6-76-27
		c-0.8-0.2-1.6-0.5-1.9-0.6c-1.4-0.2-2.2,0-2.6,0.9c-0.4,1.2,0.2,1.9,1.2,2.3c0.8,0.3,1.6,0.6,2.4,0.8c22.2,6.5,44,14,65.4,22.8
		c4.3,1.8,8.6,3.6,12.9,5.3c1.1,0.5,2.5,0.5,3-0.8C102.9,311.4,101.7,310.8,100.6,310.4z M103.7,296.6
		c-15.6-4.4-29.8-12.1-44.7-18.3c-11.3-4.7-22.8-8.4-35.2-9.1c-1.2,0-2.5-0.1-3.8,0c-1.2,0.1-3-0.3-3.1,1.6c0,1.9,1.6,1.7,3,1.8
		c2.5,0.1,5,0.2,7.5,0.4c14.3,1.4,27.2,7.1,40.1,12.8c11.5,5.1,22.8,10.8,35.1,14c1.3,0.3,2.8,1,3.4-0.7
		C106.6,297.4,104.9,296.9,103.7,296.6z M190.5,264c-3-0.5-6-0.7-8.9-1.1c-22.8-3-44.7-10.2-66.9-15.9c-15-3.8-30.1-7.1-45.6-8.1
		c-1.4-0.1-3.4-0.8-3.7,1.4c-0.3,2.2,1.7,2,3.1,2.1c22.6,1.5,44.2,7.7,65.8,13.6c18.5,5,37,9.7,56.5,11.6c1.1-0.8,4,1.3,4.1-1.6
		C195,263.5,192.2,264.3,190.5,264z M202.6,249.6c-0.7-0.1-1.3-0.2-2-0.2c-44-5.5-87.3-14-130.1-25.5c-1.9-0.5-5.1-3.1-6,0.2
		c-0.7,3,3.2,2.6,5.2,3.1c27.9,7.7,56.1,13.9,84.6,18.9c15.9,2.8,31.9,4.9,47.9,7.3c1.3,0,2.6-0.1,2.9-1.5
		C205.4,250.2,204,249.8,202.6,249.6z M206.4,233c-1-0.6-2.1-1.1-3.1-1.6c-10.2-4.8-21.1-6.1-32.1-5.9c-20.5,0.3-40.3-3.1-59.7-9.6
		c-11.2-3.7-22.6-6.8-34.6-6.7c-4,0.1-8,0-11.9,1c-1.3,0.3-2.9,0.3-2.6,2.2c0.3,2,1.9,1.5,3.1,1.3c13.8-2.6,27.1,0.3,40.3,4.2
		c18,5.4,35.9,10.9,55,10.9c15.1-0.1,30.4-0.3,44.2,7.5c1.2,0.6,2.3,0.7,3-0.6C208.7,234.3,207.4,233.6,206.4,233z M103.7,296.6
		c-15.6-4.4-29.8-12.1-44.7-18.3c-11.3-4.7-22.8-8.4-35.2-9.1c-1.2,0-2.5-0.1-3.8,0c-1.2,0.1-3-0.3-3.1,1.6c0,1.9,1.6,1.7,3,1.8
		c2.5,0.1,5,0.2,7.5,0.4c14.3,1.4,27.2,7.1,40.1,12.8c11.5,5.1,22.8,10.8,35.1,14c1.3,0.3,2.8,1,3.4-0.7
		C106.6,297.4,104.9,296.9,103.7,296.6z M100.6,310.4c-0.9-0.4-1.8-0.8-2.7-1.2c-24.8-10.5-50.1-19.6-76-27
		c-0.8-0.2-1.6-0.5-1.9-0.6c-1.4-0.2-2.2,0-2.6,0.9c-0.4,1.2,0.2,1.9,1.2,2.3c0.8,0.3,1.6,0.6,2.4,0.8c22.2,6.5,44,14,65.4,22.8
		c4.3,1.8,8.6,3.6,12.9,5.3c1.1,0.5,2.5,0.5,3-0.8C102.9,311.4,101.7,310.8,100.6,310.4z M17.9,257.5c1.2,0.6,2.4,1.2,3.6,1.7
		c18.7,7.4,37.4,14.8,56,22.3c6.5,2.6,13,5.2,19.4,7.8c1.2,0.5,2.8,0.9,3.4-0.8c0.5-1.5-0.8-1.9-1.9-2.4c-0.6-0.3-1.2-0.5-1.8-0.8
		c-24.8-9.9-49.6-19.8-74.5-29.8c-1.1-0.4-2.2-0.8-3-1.1c-1.1,0-2,0.1-2.2,1.1C16.6,256.4,17.1,257.1,17.9,257.5z M206.4,233
		c-1-0.6-2.1-1.1-3.1-1.6c-10.2-4.8-21.1-6.1-32.1-5.9c-20.5,0.3-40.3-3.1-59.7-9.6c-11.2-3.7-22.6-6.8-34.6-6.7c-4,0.1-8,0-11.9,1
		c-1.3,0.3-2.9,0.3-2.6,2.2c0.3,2,1.9,1.5,3.1,1.3c13.8-2.6,27.1,0.3,40.3,4.2c18,5.4,35.9,10.9,55,10.9c15.1-0.1,30.4-0.3,44.2,7.5
		c1.2,0.6,2.3,0.7,3-0.6C208.7,234.3,207.4,233.6,206.4,233z M202.6,249.6c-0.7-0.1-1.3-0.2-2-0.2c-44-5.5-87.3-14-130.1-25.5
		c-1.9-0.5-5.1-3.1-6,0.2c-0.7,3,3.2,2.6,5.2,3.1c27.9,7.7,56.1,13.9,84.6,18.9c15.9,2.8,31.9,4.9,47.9,7.3c1.3,0,2.6-0.1,2.9-1.5
		C205.4,250.2,204,249.8,202.6,249.6z M190.5,264c-3-0.5-6-0.7-8.9-1.1c-22.8-3-44.7-10.2-66.9-15.9c-15-3.8-30.1-7.1-45.6-8.1
		c-1.4-0.1-3.4-0.8-3.7,1.4c-0.3,2.2,1.7,2,3.1,2.1c22.6,1.5,44.2,7.7,65.8,13.6c18.5,5,37,9.7,56.5,11.6c1.1-0.8,4,1.3,4.1-1.6
		C195,263.5,192.2,264.3,190.5,264z M365.3,253.6c-0.2-6.5-4.4-11.4-7.4-16.7c-1.7-3-6-2.3-9.1-3.4c-9.2-3.2-18.5-6.4-28.8-9.9
		c7.6-3.3,14.4-6,21-9.1c7.3-3.4,13.4-8.3,15.3-16.7c3.5-14.7-5.6-35.4-24.6-36.5c-2.8-0.2-5.6-0.9-8.4-1.4
		c-6.4-1.3-7.7-3.5-5.6-9.8c0.4-1.2,1.1-2.4,1.8-3.5c1.8-2.8,0.8-4.1-2.2-4c-5.7,0.2-11.3-0.6-16.9-1.3c-15.2-2-30.5-4.1-46-6.1
		c2.6-6.5,4.7-12.5,13.2-10.3c1.2,0.3,2.7-0.1,4-0.3c9.1-1.8,17.6-4.7,20.9-14.6c3.9-11.5-3.2-21.9-13.8-20.6
		c-3.2,0.4-9.5-1.1-12.3-3c-7-4.7-14.6-7.8-22.7-10c-1.4-0.4-3.5-0.2-3.3-2.8c0.6-7.5-3.2-13.5-6.6-19.5
		c-6.6-11.6-6.5-23.1-0.5-34.7c2.6-5,5.4-9.9,8.2-14.9c0.6-1.2,1.7-2.2-0.1-3.3c-1.9-1.1-2.3,0.5-3,1.5c-1.5,2.4-2.8,4.9-4.3,7.3
		c-10.6,16.6-12.4,33.3-1,50.4c2.2,3.3,3.5,7.2,3.8,11.3c0.1,2.2-0.5,3-2.9,2.5c-5.1-0.9-11.3,0.1-15-2.6c-3.6-2.6-4.7-8.7-7-13.2
		c-0.3-0.6-0.6-1.2-0.9-1.8c-5.9-10.7-5.2-21.5,0.1-32c2.5-4.9,5.6-9.4,8.5-14.1c1.5-2.4,2.8-4.9,3-7.8c0.1-1.2,0.3-2.5-1.4-2.6
		c-1.4-0.1-2.1,0.5-2.1,2.1c0,3.4-2.1,5.8-3.8,8.5c-2.4,3.8-5,7.5-7,11.5c-6.2,12.1-7.2,24.4-0.2,36.7c1.8,3.2,3.3,6.6,4.8,9.9
		c0.6,1.3,1.5,2.6-1.3,3c-14.8,2.1-15.3,1.8-19.4-12.6c-0.1-0.3-0.2-0.6-0.3-1c-2.8-8.7-2.3-16.9,3.4-24.6
		c3.9-5.3,6.4-11.3,8.1-17.6c0.3-1.2,2-2.8-0.6-3.6c-2.4-0.8-2.3,1.2-2.7,2.5c-1.8,5.7-3.9,11.4-7.5,16.2c-6.8,9-7.2,18.7-3.9,28.9
		c1.1,3.5,2.3,6.9,3.6,10.3c0.6,1.6,1.3,2.6-1.2,3.1c-7.4,1.3-14.1,5-21.2,7.3c-3,1-4,2.6-3.8,5.8c0.7,13.2,4.1,25.9,8.2,38.4
		c1.1,3.4,0.3,4.6-2.9,5.7c-10.5,3.7-21.4,6-32.2,8.8c-12.2,3.2-24.7,5.5-36.4,10.4c-3.7,1.5-7.6,3.4-8.3,7.9
		c-2.2,13.4-0.1,19.9,13,19.7c0.3,0,0.6,0.2,1.4,0.6c-9.4,3.6-18.8,5.5-28.2,7.5c-10.3,2.2-20.5,4.3-30.3,8.2
		c-1.5,0.6-3.5,1.1-3.3,3.2c0.1,1.7,1.8,2.3,3.3,2.5c2.5,0.3,3,2.3,3.8,4.1c6,13.8-0.8,33.7-13.9,40.9c-1.2,0.7-2.4,1-2.3,2.7
		c0.2,2.3,1.9,1.9,3.3,2.1c35.8,5.1,71,12.7,106.3,20.3c9.4,2,18.7,4.2,28.9,6.5c-1.4,0.7-1.8,1.1-2.2,1.1
		c-14.1,2.1-28.3,4.1-42.5,6.1c-4.1,0.6-8.8,2.2-12.3,0.9c-8.9-3.3-18.4-4.6-26.7-9.4c-12.6-7.2-26.3-11.8-40-16.6
		c-16.1-5.7-32.1-11.7-47.6-22c7.1-0.4,12.5-2,17.8-3.8c9.3-3.1,18.4-6.7,28-9c1.4-0.3,3.4-0.3,2.9-2.5c-0.6-2.6-2.5-1.3-4.1-0.9
		c-7.3,1.7-14.3,4.5-21.4,6.8c-7.7,2.5-15.3,5.7-23.6,5.8c-1.8,0-4.4,0.1-5.1,2.3c-0.8,2.5,1.9,3.1,3.4,4.3c1.2,0.9,2.5,1.5,3.3,2.9
		c5.6,8.8,3.5,28.3-4,35.7c-4.1,4-3.9,5.1,1.5,7.4c8.6,3.6,17.1,7.4,25.7,10.9c25.1,10.2,49.9,21.1,76.4,27.5
		c3.8,0.9,7.4,1.4,11.3,0.7c16.9-2.8,33.8-5.6,50.7-8.4c38.2-6.2,76.5-12.3,114.7-18.8c21.7-3.7,43.6-5.1,65.2-9.7
		c4.6-1,7.9-3.4,10.2-7.3C363.5,272.1,365.5,263.1,365.3,253.6z M323.1,228.5c9.3,3.2,18.7,6.3,29.1,9.9
		c-33.8,12.9-69.1,13.5-103,21c8.5-5.8,17.7-10.2,26.8-14.8c13.1-6.5,26.4-12.6,39.6-18.8c1.3-0.6,3.8-3.3,4.1,1.2
		C319.6,227.5,321.8,228.1,323.1,228.5z M346.5,172.6c12.2,14.2,9.2,31.5-7.8,39c-26.6,11.8-53,23.8-78.9,37.2
		c-11.7,6-23.1,12.5-33.1,21.2c-4.4,3.8-9.2,7-15.9,10.1c11.3-13.6,15.5-33.9,2.1-53.2c13.3-1.3,23.8-9.4,35.2-15
		c28.8-14.1,56.9-29.5,86.5-42.1C339.9,167.6,342.9,168.4,346.5,172.6z M319,169.4c-13.1,2.8-25.1,7.6-37.4,11.4
		c-12.7,3.9-25.5,7.2-38.7,9.3c-3.2,0.5-4.6-0.1-5.8-3.3c-5.6-15.3-3.8-18.2,11.8-21.9c18.5-4.5,36.9-9.8,55.3-14.8
		c3.2-0.9,6.5-1.5,10.6-2.5C312.3,155.8,313.6,162.7,319,169.4z M285.4,93.6c4.1,2.5,6,11.5,3.2,16.8c-3.5,6.7-9.6,9.2-16.7,10.2
		c-2.4-0.9-5.1,0.9-7.3-1.1c4.2-0.3,8.2-1.1,12-3.1c5.5-2.9,8.5-8.4,7.8-14.4s-3.9-8.1-9.7-6.3c-1.2,0.4-2.3,0.9-4,1.6
		C274.3,92.9,281.5,91.3,285.4,93.6z M273.1,100.4c2-0.9,4.2-2.9,6.4-1.1c2,1.6,1.5,4.2,1.2,6.5c-1,6.2-6.5,9.6-16.9,9.9
		C267.8,110.4,266.5,103.2,273.1,100.4z M191.3,76.9c3-0.8,4.7,0,3.9,3.3c-0.4,1.7-0.5,3.1,1.6,3.3c2.4,0.1,2-2.2,1.8-3.3
		c-0.9-4.6,1.9-4.8,5.2-4.8c2.2,0,4.3-0.1,6.5-0.1c2.8-0.1,5.9-0.4,3.4,4c-0.6,1,0,1.9,1,2.5c1.2,0.7,2.1-0.1,2.3-1.1
		c1.1-6.9,5.8-4.9,10.1-4.2c1.8,0.3,3.6,0.6,5.4,0.8c2.3,0.3,4.6,0.4,2.6,3.8c-0.6,1-0.4,2.1,1.2,2.7c1.9,0.7,1.9-0.9,2.3-1.8
		c0.8-1.8,1.4-3.2,3.9-2.5c7.7,2.2,15,5,21.6,9.9c-31,3.9-61.8,5.7-92-4.6C178.4,81.5,184.6,78.6,191.3,76.9z M169.9,88.5
		c20.5,7.8,41.4,7.6,62.1,7.5c11,0,22-0.6,32.8-2.9c2.9-0.6,2.9,0.5,2.4,2.4c-1.2,4.5-2.4,9-4.1,13.3c-3.8,9.4-8.6,18.3-13.6,27.2
		c-4,7.2-10.1,10.5-18.1,10c-12.8-0.8-25.6-1.7-38.3-2.7c-5.2-0.4-8.8-3-10.9-8.1C175.8,120.4,172.2,105,169.9,88.5z M149.1,140.7
		c8.5-2.2,17.1-4.1,25.3-7.5c2-0.8,3-0.7,3.7,1.5c2.7,8.8,9.3,11.9,17.8,12.4c12.3,0.7,24.5,1.7,36.8,2.3c7.4,0.3,13.7-2.4,17.9-8.8
		c1-1.5,2-2.3,4-2c16.6,2.4,33.2,4.7,51,7.2c-10.3,2.9-19.5,5.5-28.8,8c-13.1,3.5-26.2,7.7-39.5,10.2c-6.8,1.3-14.2-0.5-21.3-1
		c-23.4-1.7-46.4-6.7-69.7-9.1c-11.6-1.2-23.1-2.3-34.8-2.9C123.9,146.4,136.6,143.9,149.1,140.7z M103.7,173.4
		c-3.6-0.4-5.8-2.3-6-6c-0.1-2.5-0.2-5,0.1-7.5c0.6-4.3,3-5.6,7.4-5c3.6,0.5,7.3,0.1,11,0.2c25.7,0.8,51,4.9,76.3,8.9
		c11.5,1.8,23.1,2.5,34.7,3.1c1.6,0.1,3.3,0.3,5.4,0.4c-3.7,7.5-0.6,14.2,1.5,21.6c-14.5-2-28.6-3.8-42.7-5.9
		c-20.1-2.9-40.3-4.6-60.5-6.9C121.9,175.4,112.8,174.4,103.7,173.4z M54.8,196c11.1-4.2,22.5-6,33.6-8.5c6.8-1.5,14.4-2,19.9-5.8
		c7.2-4.9,13.9-2.4,20.9-1.8c32.2,2.6,64.3,6.3,96,12c21.8,3.9,40.7-3.5,60.5-8.7c8.3-2.2,16.5-5.2,24.7-7.8
		c0.6,0.3,1.2,0.6,1.8,0.9c-23.2,10-45.1,22.7-67.8,33.7c-4.6,2.3-9.6,4-13.8,6.9c-9.6,6.8-19.8,6.5-30.5,4.4
		c-36.9-7.3-73.9-13.7-111-19.4C77.8,200,66.3,199.5,54.8,196z M46.7,246.3c-0.1,0-0.3-0.1-0.7-0.3c12.9-12.9,17.6-27.4,11.6-45.3
		c13.7,3.2,27.6,4,41.2,6.2c34.8,5.7,69.5,11.8,104.1,18.4c2.5,0.5,4.3,1.5,5.9,3.2c12.2,12.7,11.5,36.5-0.9,49.2
		c-3.2,3.2-5.9,3.9-9.7,2.5C149.1,262.9,97.7,255.6,46.7,246.3z M109.1,320.8c-28.1-6.8-54.5-18.3-81-29.3
		c-7.6-3.2-15.2-6.5-23.4-9.9c9.6-11.1,10.2-23.6,7.3-37.1c18.3,10,37.4,16.2,56.3,22.8c5.2,1.8,10.2,4,15.1,6.5
		c8.5,4.6,17.1,8.8,26.7,10.8c2.1,0.5,4.1,1.4,6.1,2.2c5,2,7.4,5.6,7.6,11.1c0.2,7.4-1.2,14.2-5.9,20.1
		C115.5,320.9,112.9,321.7,109.1,320.8z M361.5,259.7c-0.5,2.6-0.8,5.3-1.4,7.8c-2.5,10.6-8.2,16.9-19.9,18.2
		c-29.1,3.3-58,7.8-86.9,12.6c-41.2,6.8-82.3,13.6-123.5,20.4c-2.6,0.4-5.2,0.8-8.4,1.3c6.9-13.8,7.7-21.4,3.3-32.2
		c13-1.8,25.9-3.6,38.8-5.4c4.3-0.6,8.5-1.3,12.8-2c0.5-0.1,1.3,0,1.4-0.2c2.3-6,6-1.5,8.1-0.5c15.4,7.9,29.5,6,41.6-6
		c10.3-10.2,23.8-10.7,36.6-13.2c25.1-4.9,50.8-6.9,75.4-14c4.5-1.3,8.9-2.8,13.2-4.6c2.6-1.1,3.7-0.4,5.1,1.8
		C360.9,248.6,362.6,253.8,361.5,259.7z M302.9,166.8c-4,1.1-7.9,2.5-11.9,3.6c-14.8,4.4-29.8,7.8-45.1,10.1c-1.4,0.2-3.3,0-3.3,2.1
		c0,1.5,1.3,1.7,2.3,1.6c3.5-0.6,6.8-1.2,10-1.7c16.7-2.9,33.1-7.1,49.2-12.5c1.4-0.5,4.1-0.5,3.4-2.7
		C306.8,164.7,304.5,166.4,302.9,166.8z M251.3,174c18.1-1.8,34.6-9.1,51.7-14.4c1.3-0.4,2.9-0.8,2.3-2.6s-2.3-1.1-3.4-0.7
		c-6.6,2.1-13.2,4.3-19.9,6.5c-11.2,3.6-22.4,7.6-34.4,7.7c-1.5,0-3,0-4.5,0c-1.1,0-2.6-0.3-2.8,1.3c-0.3,1.8,1.1,2.2,2.6,2.3
		C245.7,174.1,248.5,174.3,251.3,174z M105.8,217.9c18,5.4,35.9,10.9,55,10.9c15.1-0.1,30.4-0.3,44.2,7.5c1.2,0.6,2.3,0.7,3-0.6
		c0.7-1.4-0.5-2.1-1.5-2.7c-1-0.6-2.1-1.1-3.1-1.6c-10.2-4.8-21.1-6.1-32.1-5.9c-20.5,0.3-40.3-3.1-59.7-9.6
		c-11.2-3.7-22.6-6.8-34.6-6.7c-4,0.1-8,0-11.9,1c-1.3,0.3-2.9,0.3-2.6,2.2c0.3,2,1.9,1.5,3.1,1.3C79.4,211,92.7,214,105.8,217.9z
		 M154.4,246.1c15.9,2.8,31.9,4.9,47.9,7.3c1.3,0,2.6-0.1,2.9-1.5c0.3-1.8-1.1-2.1-2.5-2.3c-0.7-0.1-1.3-0.2-2-0.2
		c-44-5.5-87.3-14-130.1-25.5c-1.9-0.5-5.1-3.1-6,0.2c-0.7,3,3.2,2.6,5.2,3.1C97.6,235,125.9,241.1,154.4,246.1z M190.5,264
		c-3-0.5-6-0.7-8.9-1.1c-22.8-3-44.7-10.2-66.9-15.9c-15-3.8-30.1-7.1-45.6-8.1c-1.4-0.1-3.4-0.8-3.7,1.4c-0.3,2.2,1.7,2,3.1,2.1
		c22.6,1.5,44.2,7.7,65.8,13.6c18.5,5,37,9.7,56.5,11.6c1.1-0.8,4,1.3,4.1-1.6C195,263.5,192.2,264.3,190.5,264z M103.7,296.6
		c-15.6-4.4-29.8-12.1-44.7-18.3c-11.3-4.7-22.8-8.4-35.2-9.1c-1.2,0-2.5-0.1-3.8,0c-1.2,0.1-3-0.3-3.1,1.6c0,1.9,1.6,1.7,3,1.8
		c2.5,0.1,5,0.2,7.5,0.4c14.3,1.4,27.2,7.1,40.1,12.8c11.5,5.1,22.8,10.8,35.1,14c1.3,0.3,2.8,1,3.4-0.7
		C106.6,297.4,104.9,296.9,103.7,296.6z M100.6,310.4c-0.9-0.4-1.8-0.8-2.7-1.2c-24.8-10.5-50.1-19.6-76-27
		c-0.8-0.2-1.6-0.5-1.9-0.6c-1.4-0.2-2.2,0-2.6,0.9c-0.4,1.2,0.2,1.9,1.2,2.3c0.8,0.3,1.6,0.6,2.4,0.8c22.2,6.5,44,14,65.4,22.8
		c4.3,1.8,8.6,3.6,12.9,5.3c1.1,0.5,2.5,0.5,3-0.8C102.9,311.4,101.7,310.8,100.6,310.4z M17.9,257.5c1.2,0.6,2.4,1.2,3.6,1.7
		c18.7,7.4,37.4,14.8,56,22.3c6.5,2.6,13,5.2,19.4,7.8c1.2,0.5,2.8,0.9,3.4-0.8c0.5-1.5-0.8-1.9-1.9-2.4c-0.6-0.3-1.2-0.5-1.8-0.8
		c-24.8-9.9-49.6-19.8-74.5-29.8c-1.1-0.4-2.2-0.8-3-1.1c-1.1,0-2,0.1-2.2,1.1C16.6,256.4,17.1,257.1,17.9,257.5z M190.5,264
		c-3-0.5-6-0.7-8.9-1.1c-22.8-3-44.7-10.2-66.9-15.9c-15-3.8-30.1-7.1-45.6-8.1c-1.4-0.1-3.4-0.8-3.7,1.4c-0.3,2.2,1.7,2,3.1,2.1
		c22.6,1.5,44.2,7.7,65.8,13.6c18.5,5,37,9.7,56.5,11.6c1.1-0.8,4,1.3,4.1-1.6C195,263.5,192.2,264.3,190.5,264z M202.6,249.6
		c-0.7-0.1-1.3-0.2-2-0.2c-44-5.5-87.3-14-130.1-25.5c-1.9-0.5-5.1-3.1-6,0.2c-0.7,3,3.2,2.6,5.2,3.1c27.9,7.7,56.1,13.9,84.6,18.9
		c15.9,2.8,31.9,4.9,47.9,7.3c1.3,0,2.6-0.1,2.9-1.5C205.4,250.2,204,249.8,202.6,249.6z M206.4,233c-1-0.6-2.1-1.1-3.1-1.6
		c-10.2-4.8-21.1-6.1-32.1-5.9c-20.5,0.3-40.3-3.1-59.7-9.6c-11.2-3.7-22.6-6.8-34.6-6.7c-4,0.1-8,0-11.9,1
		c-1.3,0.3-2.9,0.3-2.6,2.2c0.3,2,1.9,1.5,3.1,1.3c13.8-2.6,27.1,0.3,40.3,4.2c18,5.4,35.9,10.9,55,10.9c15.1-0.1,30.4-0.3,44.2,7.5
		c1.2,0.6,2.3,0.7,3-0.6C208.7,234.3,207.4,233.6,206.4,233z M98.4,286c-0.6-0.3-1.2-0.5-1.8-0.8c-24.8-9.9-49.6-19.8-74.5-29.8
		c-1.1-0.4-2.2-0.8-3-1.1c-1.1,0-2,0.1-2.2,1.1c-0.2,0.9,0.2,1.6,1,2.1c1.2,0.6,2.4,1.2,3.6,1.7c18.7,7.4,37.4,14.8,56,22.3
		c6.5,2.6,13,5.2,19.4,7.8c1.2,0.5,2.8,0.9,3.4-0.8C100.8,287,99.5,286.5,98.4,286z M100.6,310.4c-0.9-0.4-1.8-0.8-2.7-1.2
		c-24.8-10.5-50.1-19.6-76-27c-0.8-0.2-1.6-0.5-1.9-0.6c-1.4-0.2-2.2,0-2.6,0.9c-0.4,1.2,0.2,1.9,1.2,2.3c0.8,0.3,1.6,0.6,2.4,0.8
		c22.2,6.5,44,14,65.4,22.8c4.3,1.8,8.6,3.6,12.9,5.3c1.1,0.5,2.5,0.5,3-0.8C102.9,311.4,101.7,310.8,100.6,310.4z M103.7,296.6
		c-15.6-4.4-29.8-12.1-44.7-18.3c-11.3-4.7-22.8-8.4-35.2-9.1c-1.2,0-2.5-0.1-3.8,0c-1.2,0.1-3-0.3-3.1,1.6c0,1.9,1.6,1.7,3,1.8
		c2.5,0.1,5,0.2,7.5,0.4c14.3,1.4,27.2,7.1,40.1,12.8c11.5,5.1,22.8,10.8,35.1,14c1.3,0.3,2.8,1,3.4-0.7
		C106.6,297.4,104.9,296.9,103.7,296.6z M206.4,233c-1-0.6-2.1-1.1-3.1-1.6c-10.2-4.8-21.1-6.1-32.1-5.9
		c-20.5,0.3-40.3-3.1-59.7-9.6c-11.2-3.7-22.6-6.8-34.6-6.7c-4,0.1-8,0-11.9,1c-1.3,0.3-2.9,0.3-2.6,2.2c0.3,2,1.9,1.5,3.1,1.3
		c13.8-2.6,27.1,0.3,40.3,4.2c18,5.4,35.9,10.9,55,10.9c15.1-0.1,30.4-0.3,44.2,7.5c1.2,0.6,2.3,0.7,3-0.6
		C208.7,234.3,207.4,233.6,206.4,233z M202.6,249.6c-0.7-0.1-1.3-0.2-2-0.2c-44-5.5-87.3-14-130.1-25.5c-1.9-0.5-5.1-3.1-6,0.2
		c-0.7,3,3.2,2.6,5.2,3.1c27.9,7.7,56.1,13.9,84.6,18.9c15.9,2.8,31.9,4.9,47.9,7.3c1.3,0,2.6-0.1,2.9-1.5
		C205.4,250.2,204,249.8,202.6,249.6z M190.5,264c-3-0.5-6-0.7-8.9-1.1c-22.8-3-44.7-10.2-66.9-15.9c-15-3.8-30.1-7.1-45.6-8.1
		c-1.4-0.1-3.4-0.8-3.7,1.4c-0.3,2.2,1.7,2,3.1,2.1c22.6,1.5,44.2,7.7,65.8,13.6c18.5,5,37,9.7,56.5,11.6c1.1-0.8,4,1.3,4.1-1.6
		C195,263.5,192.2,264.3,190.5,264z M103.7,296.6c-15.6-4.4-29.8-12.1-44.7-18.3c-11.3-4.7-22.8-8.4-35.2-9.1c-1.2,0-2.5-0.1-3.8,0
		c-1.2,0.1-3-0.3-3.1,1.6c0,1.9,1.6,1.7,3,1.8c2.5,0.1,5,0.2,7.5,0.4c14.3,1.4,27.2,7.1,40.1,12.8c11.5,5.1,22.8,10.8,35.1,14
		c1.3,0.3,2.8,1,3.4-0.7C106.6,297.4,104.9,296.9,103.7,296.6z M100.6,310.4c-0.9-0.4-1.8-0.8-2.7-1.2c-24.8-10.5-50.1-19.6-76-27
		c-0.8-0.2-1.6-0.5-1.9-0.6c-1.4-0.2-2.2,0-2.6,0.9c-0.4,1.2,0.2,1.9,1.2,2.3c0.8,0.3,1.6,0.6,2.4,0.8c22.2,6.5,44,14,65.4,22.8
		c4.3,1.8,8.6,3.6,12.9,5.3c1.1,0.5,2.5,0.5,3-0.8C102.9,311.4,101.7,310.8,100.6,310.4z M98.4,286c-0.6-0.3-1.2-0.5-1.8-0.8
		c-24.8-9.9-49.6-19.8-74.5-29.8c-1.1-0.4-2.2-0.8-3-1.1c-1.1,0-2,0.1-2.2,1.1c-0.2,0.9,0.2,1.6,1,2.1c1.2,0.6,2.4,1.2,3.6,1.7
		c18.7,7.4,37.4,14.8,56,22.3c6.5,2.6,13,5.2,19.4,7.8c1.2,0.5,2.8,0.9,3.4-0.8C100.8,287,99.5,286.5,98.4,286z M98.4,286
		c-0.6-0.3-1.2-0.5-1.8-0.8c-24.8-9.9-49.6-19.8-74.5-29.8c-1.1-0.4-2.2-0.8-3-1.1c-1.1,0-2,0.1-2.2,1.1c-0.2,0.9,0.2,1.6,1,2.1
		c1.2,0.6,2.4,1.2,3.6,1.7c18.7,7.4,37.4,14.8,56,22.3c6.5,2.6,13,5.2,19.4,7.8c1.2,0.5,2.8,0.9,3.4-0.8
		C100.8,287,99.5,286.5,98.4,286z M100.6,310.4c-0.9-0.4-1.8-0.8-2.7-1.2c-24.8-10.5-50.1-19.6-76-27c-0.8-0.2-1.6-0.5-1.9-0.6
		c-1.4-0.2-2.2,0-2.6,0.9c-0.4,1.2,0.2,1.9,1.2,2.3c0.8,0.3,1.6,0.6,2.4,0.8c22.2,6.5,44,14,65.4,22.8c4.3,1.8,8.6,3.6,12.9,5.3
		c1.1,0.5,2.5,0.5,3-0.8C102.9,311.4,101.7,310.8,100.6,310.4z M103.7,296.6c-15.6-4.4-29.8-12.1-44.7-18.3
		c-11.3-4.7-22.8-8.4-35.2-9.1c-1.2,0-2.5-0.1-3.8,0c-1.2,0.1-3-0.3-3.1,1.6c0,1.9,1.6,1.7,3,1.8c2.5,0.1,5,0.2,7.5,0.4
		c14.3,1.4,27.2,7.1,40.1,12.8c11.5,5.1,22.8,10.8,35.1,14c1.3,0.3,2.8,1,3.4-0.7C106.6,297.4,104.9,296.9,103.7,296.6z
		 M103.7,296.6c-15.6-4.4-29.8-12.1-44.7-18.3c-11.3-4.7-22.8-8.4-35.2-9.1c-1.2,0-2.5-0.1-3.8,0c-1.2,0.1-3-0.3-3.1,1.6
		c0,1.9,1.6,1.7,3,1.8c2.5,0.1,5,0.2,7.5,0.4c14.3,1.4,27.2,7.1,40.1,12.8c11.5,5.1,22.8,10.8,35.1,14c1.3,0.3,2.8,1,3.4-0.7
		C106.6,297.4,104.9,296.9,103.7,296.6z M100.6,310.4c-0.9-0.4-1.8-0.8-2.7-1.2c-24.8-10.5-50.1-19.6-76-27
		c-0.8-0.2-1.6-0.5-1.9-0.6c-1.4-0.2-2.2,0-2.6,0.9c-0.4,1.2,0.2,1.9,1.2,2.3c0.8,0.3,1.6,0.6,2.4,0.8c22.2,6.5,44,14,65.4,22.8
		c4.3,1.8,8.6,3.6,12.9,5.3c1.1,0.5,2.5,0.5,3-0.8C102.9,311.4,101.7,310.8,100.6,310.4z M98.4,286c-0.6-0.3-1.2-0.5-1.8-0.8
		c-24.8-9.9-49.6-19.8-74.5-29.8c-1.1-0.4-2.2-0.8-3-1.1c-1.1,0-2,0.1-2.2,1.1c-0.2,0.9,0.2,1.6,1,2.1c1.2,0.6,2.4,1.2,3.6,1.7
		c18.7,7.4,37.4,14.8,56,22.3c6.5,2.6,13,5.2,19.4,7.8c1.2,0.5,2.8,0.9,3.4-0.8C100.8,287,99.5,286.5,98.4,286z"/>
	<path class="st0" d="M195,266c-0.1,2.9-3,0.8-4.1,1.6c-19.5-1.9-38-6.5-56.5-11.6c-21.6-5.9-43.2-12.1-65.8-13.6
		c-1.5-0.1-3.5,0.1-3.1-2.1c0.3-2.1,2.3-1.5,3.7-1.4c15.5,1,30.6,4.3,45.6,8.1c22.2,5.6,44.1,12.8,66.9,15.9c3,0.4,6,0.6,8.9,1.1
		C192.2,264.3,195,263.5,195,266z"/>
	<path class="st0" d="M205.1,252c-0.3,1.4-1.6,1.5-2.9,1.5c-16-2.4-32-4.5-47.9-7.3c-28.5-5-56.7-11.2-84.6-18.9
		c-2-0.5-5.9-0.1-5.2-3.1c0.8-3.3,4.1-0.7,6-0.2c42.8,11.5,86.1,20,130.1,25.5c0.7,0.1,1.3,0.2,2,0.2
		C204,249.8,205.4,250.2,205.1,252z"/>
	<path class="st0" d="M208,235.7c-0.6,1.3-1.8,1.2-3,0.6c-13.8-7.8-29.1-7.6-44.2-7.5c-19.1,0.1-37-5.4-55-10.9
		c-13.1-4-26.4-6.9-40.3-4.2c-1.3,0.2-2.9,0.7-3.1-1.3c-0.3-1.9,1.3-1.8,2.6-2.2c3.9-1,7.9-0.9,11.9-1c12-0.1,23.4,3,34.6,6.7
		c19.4,6.5,39.2,9.8,59.7,9.6c11-0.2,21.9,1.1,32.1,5.9c1.1,0.5,2.1,1,3.1,1.6C207.4,233.6,208.7,234.3,208,235.7z"/>
	<path class="st0" d="M100.3,288.4c-0.6,1.7-2.1,1.3-3.4,0.8c-6.5-2.5-13-5.2-19.4-7.8c-18.7-7.4-37.4-14.8-56-22.3
		c-1.2-0.5-2.4-1.1-3.6-1.7c-0.8-0.4-1.2-1.1-1-2.1s1.1-1.1,2.2-1.1c0.9,0.3,2,0.7,3,1.1c24.8,9.9,49.7,19.9,74.5,29.8
		c0.6,0.2,1.2,0.5,1.8,0.8C99.5,286.5,100.8,287,100.3,288.4z"/>
	<path class="st0" d="M102.3,312.9c-0.5,1.3-1.9,1.2-3,0.8c-4.3-1.7-8.6-3.5-12.9-5.3C65,299.6,43.2,292,21,285.5
		c-0.8-0.2-1.6-0.5-2.4-0.8c-1-0.4-1.7-1.1-1.2-2.3c0.3-0.9,1.2-1.1,2.6-0.9c0.3,0.1,1.1,0.4,1.9,0.6c25.9,7.4,51.2,16.6,76,27
		c0.9,0.4,1.8,0.9,2.7,1.2C101.7,310.8,102.9,311.4,102.3,312.9z"/>
	<path class="st0" d="M106,299.1c-0.6,1.7-2,1-3.4,0.7c-12.3-3.2-23.6-8.9-35.1-14c-12.9-5.7-25.8-11.5-40.1-12.8
		c-2.5-0.2-5-0.3-7.5-0.4c-1.3-0.1-3,0.1-3-1.8s1.8-1.5,3.1-1.6c1.3-0.1,2.7,0,3.8,0c12.5,0.7,23.9,4.4,35.2,9.1
		c14.8,6.2,29.1,13.9,44.7,18.3C104.9,296.9,106.6,297.4,106,299.1z"/>
	<path class="st0" d="M242.9,174c-1.4,0-2.8-0.5-2.6-2.3c0.2-1.6,1.7-1.3,2.8-1.3c1.5,0,3,0,4.5,0c12-0.1,23.2-4,34.4-7.7
		c6.6-2.2,13.2-4.4,19.9-6.5c1.2-0.4,2.8-1,3.4,0.7c0.6,1.8-1,2.2-2.3,2.6c-17.1,5.3-33.7,12.5-51.7,14.4
		C248.5,174.3,245.7,174.1,242.9,174z"/>
	<path class="st0" d="M304.1,170.1c-16.1,5.4-32.5,9.6-49.2,12.5c-3.3,0.6-6.5,1.1-10,1.7c-1.1,0.1-2.3-0.2-2.3-1.6
		c0-2.2,1.9-1.9,3.3-2.1c15.3-2.3,30.3-5.7,45.1-10.1c4-1.2,7.9-2.5,11.9-3.6c1.6-0.4,3.9-2.1,4.6,0.5
		C308.2,169.6,305.5,169.6,304.1,170.1z"/>
	<path class="st0" d="M208,235.7c-0.6,1.3-1.8,1.2-3,0.6c-13.8-7.8-29.1-7.6-44.2-7.5c-19.1,0.1-37-5.4-55-10.9
		c-13.1-4-26.4-6.9-40.3-4.2c-1.3,0.2-2.9,0.7-3.1-1.3c-0.3-1.9,1.3-1.8,2.6-2.2c3.9-1,7.9-0.9,11.9-1c12-0.1,23.4,3,34.6,6.7
		c19.4,6.5,39.2,9.8,59.7,9.6c11-0.2,21.9,1.1,32.1,5.9c1.1,0.5,2.1,1,3.1,1.6C207.4,233.6,208.7,234.3,208,235.7z"/>
	<path class="st0" d="M205.1,252c-0.3,1.4-1.6,1.5-2.9,1.5c-16-2.4-32-4.5-47.9-7.3c-28.5-5-56.7-11.2-84.6-18.9
		c-2-0.5-5.9-0.1-5.2-3.1c0.8-3.3,4.1-0.7,6-0.2c42.8,11.5,86.1,20,130.1,25.5c0.7,0.1,1.3,0.2,2,0.2
		C204,249.8,205.4,250.2,205.1,252z"/>
	<path class="st0" d="M195,266c-0.1,2.9-3,0.8-4.1,1.6c-19.5-1.9-38-6.5-56.5-11.6c-21.6-5.9-43.2-12.1-65.8-13.6
		c-1.5-0.1-3.5,0.1-3.1-2.1c0.3-2.1,2.3-1.5,3.7-1.4c15.5,1,30.6,4.3,45.6,8.1c22.2,5.6,44.1,12.8,66.9,15.9c3,0.4,6,0.6,8.9,1.1
		C192.2,264.3,195,263.5,195,266z"/>
	<path class="st0" d="M106,299.1c-0.6,1.7-2,1-3.4,0.7c-12.3-3.2-23.6-8.9-35.1-14c-12.9-5.7-25.8-11.5-40.1-12.8
		c-2.5-0.2-5-0.3-7.5-0.4c-1.3-0.1-3,0.1-3-1.8s1.8-1.5,3.1-1.6c1.3-0.1,2.7,0,3.8,0c12.5,0.7,23.9,4.4,35.2,9.1
		c14.8,6.2,29.1,13.9,44.7,18.3C104.9,296.9,106.6,297.4,106,299.1z"/>
	<path class="st0" d="M102.3,312.9c-0.5,1.3-1.9,1.2-3,0.8c-4.3-1.7-8.6-3.5-12.9-5.3C65,299.6,43.2,292,21,285.5
		c-0.8-0.2-1.6-0.5-2.4-0.8c-1-0.4-1.7-1.1-1.2-2.3c0.3-0.9,1.2-1.1,2.6-0.9c0.3,0.1,1.1,0.4,1.9,0.6c25.9,7.4,51.2,16.6,76,27
		c0.9,0.4,1.8,0.9,2.7,1.2C101.7,310.8,102.9,311.4,102.3,312.9z"/>
	<path class="st0" d="M100.3,288.4c-0.6,1.7-2.1,1.3-3.4,0.8c-6.5-2.5-13-5.2-19.4-7.8c-18.7-7.4-37.4-14.8-56-22.3
		c-1.2-0.5-2.4-1.1-3.6-1.7c-0.8-0.4-1.2-1.1-1-2.1s1.1-1.1,2.2-1.1c0.9,0.3,2,0.7,3,1.1c24.8,9.9,49.7,19.9,74.5,29.8
		c0.6,0.2,1.2,0.5,1.8,0.8C99.5,286.5,100.8,287,100.3,288.4z"/>
	<path class="st0" d="M303.1,159.6c-17.1,5.3-33.7,12.5-51.7,14.4c-2.8,0.3-5.6,0.1-8.5,0c-1.4,0-2.8-0.5-2.6-2.3
		c0.2-1.6,1.7-1.3,2.8-1.3c1.5,0,3,0,4.5,0c12-0.1,23.2-4,34.4-7.7c6.6-2.2,13.2-4.4,19.9-6.5c1.2-0.4,2.8-1,3.4,0.7
		C305.9,158.8,304.4,159.2,303.1,159.6z"/>
	<path class="st0" d="M304.1,170.1c-16.1,5.4-32.5,9.6-49.2,12.5c-3.3,0.6-6.5,1.1-10,1.7c-1.1,0.1-2.3-0.2-2.3-1.6
		c0-2.2,1.9-1.9,3.3-2.1c15.3-2.3,30.3-5.7,45.1-10.1c4-1.2,7.9-2.5,11.9-3.6c1.6-0.4,3.9-2.1,4.6,0.5
		C308.2,169.6,305.5,169.6,304.1,170.1z"/>
</g>
<rect x="-194.9" y="64.8" class="st0" width="59.8" height="47.4"/>
</svg>
