<?xml version="1.0" encoding="utf-8"?>
<!-- Generator: Adobe Illustrator 25.0.0, SVG Export Plug-In . SVG Version: 6.00 Build 0)  -->
<svg version="1.1" id="Capa_1" xmlns="http://www.w3.org/2000/svg" xmlns:xlink="http://www.w3.org/1999/xlink" x="0px" y="0px"
	 viewBox="0 0 25.6 25.8" style="enable-background:new 0 0 25.6 25.8;" xml:space="preserve">
<style type="text/css">
	.st0{fill:#F5F5DC;}
</style>
<g>
	<path class="st0" d="M6.9,22.8C8,22.2,8.7,21.3,9,20.1C9,19.9,9,19.6,9,19.3c0-3.8,0-7.6,0-11.4c0-0.2,0.1-0.4,0.2-0.5
		C10.6,6,12,4.6,13.5,3.2c0.1-0.1,0.2-0.2,0.2-0.2c0,0.2,0,0.2,0,0.3c0,4.8,0,9.7,0,14.6c0,2.4-1.7,4.5-4.1,4.9
		C8.6,22.9,7.8,22.8,6.9,22.8z"/>
	<path class="st0" d="M2.9,19.4c0-1.3,1.1-2.3,2.3-2.3s2.3,1.1,2.3,2.3c0,1.4-1,2.3-2.3,2.4C3.9,21.7,2.9,20.6,2.9,19.4z"/>
	<path class="st0" d="M18.3,2.9c1.4,0,2.8,0,4.2,0c0.2,0,0.2,0,0.2,0.2c0,1.4,0,2.9,0,4.2c-0.4-1.1-1-1.9-1.7-2.7
		C20.3,3.9,19.4,3.3,18.3,2.9z"/>
	<path class="st0" d="M16.3,12.9c1.3-0.6,2.3-1.6,2.8-2.9c0,2,0,3.8,0,5.8C18.5,14.5,17.6,13.5,16.3,12.9z"/>
</g>
</svg>
