<?xml version="1.0" encoding="utf-8"?>
<!-- Generator: Adobe Illustrator 25.0.0, SVG Export Plug-In . SVG Version: 6.00 Build 0)  -->
<svg version="1.1" id="Capa_1" xmlns="http://www.w3.org/2000/svg" xmlns:xlink="http://www.w3.org/1999/xlink" x="0px" y="0px"
	 viewBox="0 0 89.6 26.3" style="enable-background:new 0 0 89.6 26.3;" xml:space="preserve">
<style type="text/css">
	.st0{fill:#F5F5DC;}
</style>
<path class="st0" d="M5.3,26.5c1.5-0.8,2.4-2,2.8-3.6c0.1-0.3,0.1-0.7,0.1-1.1c0-5,0-10.1,0-15.1c0-0.3,0.1-0.5,0.3-0.7
	c1.8-1.8,3.7-3.7,5.6-5.6c0.1-0.1,0.2-0.3,0.3-0.3c0,0.2,0,0.3,0,0.4c0,6.4,0,12.9,0,19.4c0,3.2-2.3,6-5.5,6.5
	C7.6,26.6,6.5,26.5,5.3,26.5z"/>
<path class="st0" d="M0,21.9c0-1.7,1.4-3.1,3-3.1s3.1,1.4,3.1,3c0,1.8-1.3,3.1-3.1,3.2C1.4,25,0,23.6,0,21.9z"/>
<path class="st0" d="M20.5,0c1.9,0,3.7,0,5.6,0c0.2,0,0.3,0,0.3,0.3c0,1.9,0,3.8,0,5.6c-0.5-1.4-1.3-2.5-2.3-3.6
	C23.1,1.3,21.9,0.5,20.5,0z"/>
<path class="st0" d="M17.8,13.3c1.7-0.8,3-2.1,3.7-3.9c0,2.6,0,5.1,0,7.7C20.8,15.4,19.6,14.1,17.8,13.3z"/>
<g>
	<path class="st0" d="M33.8,10.2v5.1c0,0.3-0.1,0.7-0.2,0.9c-0.1,0.3-0.3,0.5-0.5,0.7s-0.5,0.4-0.7,0.5s-0.6,0.2-0.9,0.2
		s-0.7-0.1-0.9-0.2c-0.3-0.1-0.5-0.3-0.7-0.4c-0.2-0.2-0.4-0.4-0.5-0.7c-0.1-0.3-0.2-0.6-0.2-0.9H30c0,0.2,0.1,0.4,0.1,0.6
		c0.1,0.2,0.2,0.3,0.3,0.5c0.1,0.1,0.3,0.2,0.4,0.3s0.4,0.1,0.6,0.1s0.4,0,0.6-0.1s0.3-0.2,0.4-0.3c0.1-0.1,0.2-0.3,0.3-0.5
		s0.1-0.4,0.1-0.6v-5.1L33.8,10.2L33.8,10.2z"/>
	<path class="st0" d="M36.6,14.3v3.2h-0.9v-7.3h4.5V11h-3.6v2.5h3v0.8H36.6z"/>
	<path class="st0" d="M47.9,10.2h1.7c0.3,0,0.6,0,0.8,0.1c0.3,0.1,0.5,0.1,0.7,0.2c0.3,0.1,0.6,0.3,0.8,0.5s0.4,0.5,0.6,0.8
		c0.1,0.2,0.2,0.5,0.3,0.8s0.1,0.6,0.1,0.9V14c0,0.3,0,0.6-0.1,0.9c-0.1,0.3-0.2,0.6-0.3,0.8c-0.1,0.3-0.3,0.5-0.5,0.7
		c-0.2,0.2-0.4,0.4-0.6,0.5c-0.2,0.2-0.5,0.3-0.8,0.3c-0.3,0.1-0.6,0.1-1,0.1h-1.7V10.2z M48.8,16.8h0.7c0.3,0,0.5,0,0.7-0.1
		s0.4-0.2,0.6-0.3c0.2-0.1,0.3-0.3,0.5-0.4c0.2-0.1,0.2-0.4,0.3-0.6c0.1-0.2,0.1-0.4,0.2-0.6c0-0.2,0.1-0.4,0.1-0.6v-0.5
		c0-0.2,0-0.4-0.1-0.7c0-0.2-0.1-0.4-0.2-0.6c-0.1-0.2-0.2-0.4-0.4-0.6c-0.2-0.2-0.3-0.3-0.6-0.5c-0.2-0.1-0.3-0.2-0.5-0.2
		S49.8,11,49.6,11h-0.7L48.8,16.8L48.8,16.8z"/>
	<path class="st0" d="M55.5,17.5c-0.3-0.1-0.6-0.3-0.8-0.5s-0.4-0.5-0.5-0.8C54,15.7,54,15.4,54,15v-0.2c0-0.4,0.1-0.8,0.2-1.2
		c0.1-0.3,0.3-0.6,0.6-0.9c0.2-0.2,0.5-0.4,0.8-0.5s0.6-0.2,0.9-0.2c0.4,0,0.7,0.1,1,0.2c0.3,0.1,0.5,0.3,0.7,0.6
		c0.2,0.2,0.3,0.5,0.4,0.8c0.1,0.3,0.1,0.7,0.1,1.1v0.4h-3.9l0,0c0,0.3,0.1,0.5,0.2,0.7c0.1,0.2,0.2,0.4,0.3,0.5
		c0.1,0.2,0.3,0.3,0.5,0.4s0.4,0.1,0.7,0.1s0.6-0.1,0.9-0.2c0.3-0.1,0.5-0.3,0.6-0.5l0.6,0.4c-0.2,0.3-0.5,0.5-0.8,0.7
		c-0.4,0.2-0.8,0.3-1.3,0.3C56.2,17.6,55.8,17.6,55.5,17.5z M55.9,12.9c-0.2,0.1-0.3,0.2-0.5,0.3c-0.1,0.1-0.2,0.3-0.3,0.5
		s-0.2,0.4-0.2,0.7h2.9l0,0c0-0.2,0-0.3-0.1-0.5s-0.2-0.4-0.3-0.5s-0.3-0.3-0.4-0.3C56.8,13,56.6,13,56.4,13
		C56.3,12.8,56.1,12.8,55.9,12.9z"/>
	<path class="st0" d="M63.9,15.8c0-0.1-0.1-0.2-0.2-0.2c-0.1-0.1-0.2-0.1-0.4-0.2s-0.4-0.1-0.6-0.2C62.3,15.1,62,15,61.8,15
		s-0.5-0.2-0.7-0.3s-0.3-0.3-0.4-0.4s-0.2-0.4-0.2-0.6c0-0.2,0.1-0.4,0.2-0.6c0.1-0.2,0.2-0.4,0.4-0.5s0.4-0.3,0.7-0.3
		c0.3-0.1,0.5-0.1,0.9-0.1c0.3,0,0.6,0,0.9,0.1c0.3,0.1,0.5,0.2,0.7,0.4s0.3,0.3,0.4,0.5s0.2,0.4,0.2,0.7H64c0-0.1,0-0.2-0.1-0.3
		s-0.1-0.2-0.3-0.3c-0.1-0.1-0.2-0.2-0.4-0.2C63,13,62.9,13,62.7,13s-0.4,0-0.5,0.1c-0.1,0-0.3,0.1-0.4,0.2
		c-0.1,0.1-0.2,0.2-0.2,0.3c-0.1,0.1-0.1,0.2-0.1,0.3s0,0.2,0.1,0.3c0,0.1,0.1,0.2,0.2,0.2c0.1,0.1,0.2,0.1,0.4,0.2
		c0.2,0.1,0.4,0.1,0.6,0.2c0.3,0.1,0.6,0.2,0.9,0.2c0.3,0,0.5,0.2,0.7,0.3c0.2,0.1,0.3,0.3,0.4,0.5s0.1,0.4,0.1,0.6
		c0,0.2-0.1,0.5-0.2,0.7s-0.3,0.4-0.5,0.5s-0.4,0.2-0.7,0.3C63.2,18,62.9,18,62.6,18c-0.4,0-0.7,0-1-0.1s-0.5-0.2-0.7-0.4
		c-0.2-0.2-0.4-0.3-0.5-0.6c-0.1-0.2-0.2-0.4-0.2-0.7h0.9c0,0.2,0.1,0.4,0.2,0.5c0.1,0.1,0.2,0.2,0.3,0.3c0.1,0.1,0.3,0.1,0.4,0.2
		c0.2,0,0.3,0.1,0.5,0.1s0.5,0,0.6-0.1c0.2-0.1,0.3-0.1,0.4-0.2c0.1-0.1,0.1-0.1,0.1-0.2s0.1-0.2,0.1-0.2C64,16,63.9,15.9,63.9,15.8
		z"/>
	<path class="st0" d="M69.4,12.1v4.6h1.8v0.8h-4.6v-0.8h1.9v-3.8h-1.9v-0.8H69.4z M68.4,10.5c0-0.1,0.1-0.1,0.1-0.2
		c0,0,0.1-0.1,0.2-0.1s0.1,0,0.2,0s0.2,0,0.2,0s0.1,0.1,0.2,0.1s0.1,0.1,0.1,0.2c0,0.1,0,0.1,0,0.2c0,0.2,0,0.3-0.1,0.4
		c-0.1,0.1-0.2,0.2-0.4,0.2c-0.2,0-0.3-0.1-0.4-0.2s-0.1-0.2-0.1-0.4C68.4,10.6,68.4,10.5,68.4,10.5z"/>
	<path class="st0" d="M72.7,12.1h0.8l0.1,0.8c0.1-0.1,0.2-0.2,0.3-0.3c0.1-0.1,0.2-0.2,0.3-0.2c0.2-0.1,0.3-0.2,0.5-0.2
		s0.4-0.1,0.6-0.1c0.3,0,0.5,0,0.8,0.1c0.2,0.1,0.4,0.2,0.6,0.4s0.3,0.4,0.4,0.7s0.1,0.6,0.1,0.9v3.5h-0.9v-3.4c0-0.2,0-0.4-0.1-0.6
		c-0.1-0.2-0.1-0.3-0.2-0.4c-0.1-0.1-0.2-0.2-0.4-0.2c-0.2,0-0.3-0.1-0.5-0.1s-0.3,0-0.5,0.1c-0.1,0-0.3,0.1-0.4,0.2
		c-0.1,0.1-0.2,0.2-0.3,0.3c-0.1,0.1-0.2,0.2-0.2,0.3v3.9h-0.9v-5.7H72.7z"/>
	<path class="st0" d="M78.9,13.7c0.1-0.3,0.2-0.6,0.4-0.9s0.4-0.4,0.7-0.6c0.3-0.1,0.6-0.2,0.9-0.2c0.2,0,0.4,0,0.6,0.1
		s0.3,0.1,0.5,0.2c0.1,0.1,0.2,0.1,0.2,0.2c0.1,0.1,0.1,0.1,0.2,0.2v-0.6h0.8v5.3c0,0.4-0.1,0.7-0.2,1s-0.3,0.5-0.5,0.7
		s-0.4,0.3-0.7,0.4c-0.3,0.1-0.6,0.2-0.9,0.2c-0.1,0-0.3,0-0.5,0s-0.4-0.1-0.5-0.2c-0.2-0.1-0.4-0.2-0.5-0.3
		c-0.2-0.1-0.3-0.3-0.4-0.4l0.5-0.6c0.1,0.1,0.2,0.3,0.4,0.3c0.1,0.1,0.2,0.2,0.4,0.2c0.1,0.1,0.2,0.1,0.4,0.1c0.1,0,0.2,0,0.4,0
		c0.2,0,0.4,0,0.6-0.1s0.3-0.2,0.5-0.3c0.1-0.1,0.2-0.3,0.3-0.5c0.1-0.2,0.1-0.4,0.1-0.6V17c-0.1,0.1-0.1,0.2-0.2,0.2
		c-0.1,0.1-0.2,0.1-0.3,0.2c-0.1,0.1-0.3,0.1-0.5,0.2s-0.4,0.1-0.6,0.1c-0.3,0-0.6-0.1-0.9-0.2s-0.5-0.3-0.7-0.6
		c-0.2-0.2-0.3-0.5-0.4-0.9c-0.1-0.3-0.2-0.7-0.2-1.1v-0.1C78.7,14.4,78.8,14,78.9,13.7z M79.7,15.6c0.1,0.2,0.1,0.4,0.3,0.6
		c0.1,0.2,0.3,0.3,0.5,0.4s0.4,0.2,0.7,0.2c0.2,0,0.3,0,0.4-0.1c0.1,0,0.2-0.1,0.3-0.2c0.1-0.1,0.2-0.2,0.3-0.3s0.2-0.2,0.2-0.3
		v-2.5c-0.1-0.1-0.1-0.2-0.2-0.3s-0.2-0.2-0.3-0.2c-0.1-0.1-0.2-0.1-0.3-0.2c-0.1,0-0.3-0.1-0.4-0.1c-0.3,0-0.5,0.1-0.7,0.2
		c-0.2,0.1-0.3,0.3-0.5,0.4c-0.1,0.2-0.2,0.4-0.3,0.6c-0.1,0.2-0.1,0.5-0.1,0.8v0.1C79.6,15.2,79.7,15.4,79.7,15.6z"/>
	<path class="st0" d="M88.6,15.8c0-0.1-0.1-0.2-0.2-0.2c-0.1-0.1-0.2-0.1-0.4-0.2s-0.4-0.1-0.6-0.2C87,15.1,86.7,15,86.5,15
		c-0.3-0.1-0.5-0.2-0.7-0.3s-0.3-0.3-0.4-0.4c-0.1-0.2-0.2-0.4-0.2-0.6c0-0.2,0.1-0.4,0.2-0.6s0.2-0.4,0.4-0.5
		c0.2-0.1,0.4-0.3,0.7-0.3s0.5-0.1,0.9-0.1c0.3,0,0.6,0,0.9,0.1s0.5,0.2,0.7,0.4s0.3,0.3,0.4,0.5s0.2,0.4,0.2,0.7h-0.9
		c0-0.1,0-0.2-0.1-0.3s-0.1-0.2-0.3-0.3s-0.2-0.2-0.4-0.2C87.7,13,87.6,13,87.4,13s-0.4,0-0.5,0.1c-0.1,0-0.3,0.1-0.4,0.2
		c-0.1,0.1-0.2,0.2-0.2,0.3c-0.1,0.1-0.1,0.2-0.1,0.3s0,0.2,0.1,0.3c0,0.1,0.1,0.2,0.2,0.2c0.1,0.1,0.2,0.1,0.4,0.2
		c0.2,0.1,0.4,0.1,0.6,0.2c0.3,0.1,0.6,0.2,0.9,0.2c0.3,0.1,0.5,0.2,0.7,0.3s0.3,0.3,0.4,0.5s0.1,0.4,0.1,0.6c0,0.2-0.1,0.5-0.2,0.7
		s-0.3,0.4-0.5,0.5s-0.4,0.2-0.7,0.3C87.9,18,87.6,18,87.3,18c-0.4,0-0.7,0-1-0.1s-0.5-0.2-0.7-0.4c-0.2-0.2-0.4-0.3-0.5-0.6
		c-0.1-0.2-0.2-0.4-0.2-0.7H86c0,0.2,0.1,0.4,0.2,0.5s0.2,0.2,0.3,0.3c0.1,0.1,0.3,0.1,0.4,0.2s0.3,0.1,0.5,0.1s0.5,0,0.6-0.1
		c0.2-0.1,0.3-0.1,0.4-0.2s0.1-0.1,0.1-0.2s0.1-0.2,0.1-0.2C88.7,16,88.6,15.9,88.6,15.8z"/>
</g>
</svg>
